<svg id="steps-invite" xmlns="http://www.w3.org/2000/svg" width="354" height="236" viewBox="0 0 354 236">
    <defs>
        <style>
            .cls-2{fill:#e5e6e6}.cls-3{fill:#f0b90b}.cls-4{fill:#d9d9da}.cls-8{fill:#c09409}.cls-9{fill:#333436}.cls-10,.cls-11{fill:#fff}.cls-10{opacity:.08}.cls-11{opacity:.38}
        </style>
    </defs>
    <g id="Group_8739" data-name="Group 8739" transform="translate(28.998 23.835)">
        <path id="Path_17371" data-name="Path 17371" class="cls-2" d="M252.456 73.3h-70.321L162.59 53.756h-43.48v-6.221h46.056l19.546 19.546h67.744z" transform="translate(-30.983 -24.627)"/>
        <path id="Path_17372" data-name="Path 17372" class="cls-3" d="M121.03 24.239H45.7a16.209 16.209 0 0 0-16.211 16.209v47.415A16.209 16.209 0 0 0 45.7 104.072h61.9l10.271 10.272a1.853 1.853 0 0 0 3.162-1.311v-8.961a16.209 16.209 0 0 0 16.207-16.209V40.448a16.209 16.209 0 0 0-16.21-16.209z" transform="translate(-29.489 -24.239)"/>
        <path id="Path_17373" data-name="Path 17373" class="cls-2" d="M204.149 176.25h-40.843v-6.221h38.266l12.823-12.822h38.8v6.221h-36.224z" transform="translate(-31.719 -26.455)"/>
        <path id="Path_17374" data-name="Path 17374" class="cls-4" d="M159.835 143.98H99.083a12.559 12.559 0 0 0-12.558 12.559v35.016a12.559 12.559 0 0 0 12.558 12.559v8.925a1.523 1.523 0 0 0 2.6 1.077l10-10h48.152a12.559 12.559 0 0 0 12.558-12.559v-35.018a12.559 12.559 0 0 0-12.558-12.559z" transform="translate(-30.44 -26.235)"/>
        <g id="Group_8736" data-name="Group 8736" transform="translate(127.251 62.114)">
            <g id="Group_8734" data-name="Group 8734">
                <path id="Path_17375" data-name="Path 17375" d="M220.343 94.121v28.484a6.669 6.669 0 0 1-2.165 4.93 1.842 1.842 0 0 1-.19.161 6.628 6.628 0 0 1-4.345 1.609H165.6a6.626 6.626 0 0 1-4.345-1.609.486.486 0 0 1-.132-.117 6.665 6.665 0 0 1-2.223-4.975V94.121a6.673 6.673 0 0 1 2.223-4.988.475.475 0 0 1 .132-.118 6.631 6.631 0 0 1 4.345-1.609h48.045a6.633 6.633 0 0 1 4.345 1.609 1.974 1.974 0 0 1 .19.161 6.7 6.7 0 0 1 2.163 4.945z" transform="translate(-158.897 -87.406)" style="fill:#cccdce"/>
                <path id="Path_17376" data-name="Path 17376" class="cls-4" d="m189.619 108.383-2.765 1.887-25.6 17.454a.486.486 0 0 1-.132-.117 6.665 6.665 0 0 1-2.223-4.975V94.148a6.673 6.673 0 0 1 2.223-4.988.475.475 0 0 1 .132-.118l25.617 17.469z" transform="translate(-158.897 -87.433)"/>
                <path id="Path_17377" data-name="Path 17377" class="cls-4" d="M220.863 94.148v28.484a6.669 6.669 0 0 1-2.165 4.93 1.839 1.839 0 0 1-.19.161l-25.544-17.41-2.824-1.931 2.824-1.917 25.544-17.425a1.972 1.972 0 0 1 .19.161 6.7 6.7 0 0 1 2.165 4.947z" transform="translate(-159.418 -87.433)"/>
                <path id="Path_17378" data-name="Path 17378" class="cls-2" d="M218.215 127.82a1.839 1.839 0 0 1-.19.161 6.628 6.628 0 0 1-4.345 1.609h-48.045a6.626 6.626 0 0 1-4.345-1.609.486.486 0 0 1-.132-.117l23.452-19.224 2.3-1.872 2.809-2.312 2.765 2.268 2.34 1.917z" transform="translate(-158.935 -87.69)"/>
                <path id="Path_17379" data-name="Path 17379" d="m218.215 89.176-23.394 19.18-2.34 1.931-2.765 2.268-2.824-2.312-2.282-1.887-23.452-19.223a.476.476 0 0 1 .132-.118 6.631 6.631 0 0 1 4.345-1.609h48.045a6.633 6.633 0 0 1 4.345 1.609 1.972 1.972 0 0 1 .19.161z" transform="translate(-158.935 -87.406)" style="fill:#f2f2f3"/>
            </g>
            <g id="Group_8735" data-name="Group 8735" transform="translate(22.807 12.871)">
                <circle id="Ellipse_1523" data-name="Ellipse 1523" cx="7.916" cy="7.916" r="7.916" style="fill:#d8a70a"/>
                <circle id="Ellipse_1524" data-name="Ellipse 1524" class="cls-8" cx="1.732" cy="1.732" r="1.732" transform="translate(8.163 4.7)"/>
                <circle id="Ellipse_1525" data-name="Ellipse 1525" class="cls-8" cx="1.732" cy="1.732" r="1.732" transform="translate(3.216 4.7)"/>
                <path id="Rectangle_1925" data-name="Rectangle 1925" class="cls-8" transform="translate(4.579 1.738)" d="M0 0h.736v4.694H0z"/>
                <path id="Path_17380" data-name="Path 17380" class="cls-8" d="m191.845 107.208-2.581-2.581v-2.873H190v2.569l2.366 2.366z" transform="translate(-182.21 -100.516)"/>
                <path id="Path_17381" data-name="Path 17381" class="cls-3" d="M190.006 100.5a7.916 7.916 0 1 0 7.916 7.916 7.915 7.915 0 0 0-7.916-7.916zm0 14.348a6.431 6.431 0 1 1 6.432-6.432 6.432 6.432 0 0 1-6.432 6.427z" transform="translate(-182.091 -100.495)"/>
            </g>
        </g>
        <g id="Group_8737" data-name="Group 8737" transform="translate(182.815 8.082)">
            <rect id="Rectangle_1926" data-name="Rectangle 1926" width="84.899" height="169.798" rx="9.47" transform="translate(28.291)"/>
            <path id="Path_17382" data-name="Path 17382" class="cls-9" d="M319.813 35.7h-13.805v.892a4.29 4.29 0 0 1-4.29 4.29h-29.684a4.29 4.29 0 0 1-4.29-4.29V35.7h-14.2a6.131 6.131 0 0 0-6.124 6.124V193a6.131 6.131 0 0 0 6.124 6.124h66.274a6.131 6.131 0 0 0 6.119-6.124V41.824a6.131 6.131 0 0 0-6.124-6.124z" transform="translate(-215.936 -32.512)"/>
            <path id="Path_17383" data-name="Path 17383" class="cls-10" d="M262.583 47.524a5.034 5.034 0 1 1-5.035-5.038 5 5 0 0 1 5.035 5.038z" transform="translate(-216.021 -32.625)"/>
            <circle id="Ellipse_1526" data-name="Ellipse 1526" class="cls-11" cx="1.814" cy="1.814" r="1.814" transform="translate(39.714 11.592)"/>
            <path id="Path_17384" data-name="Path 17384" class="cls-11" d="M261.412 50.88a5.034 5.034 0 0 1-7.685 0 4.443 4.443 0 0 1 7.685 0z" transform="translate(-216.041 -32.728)"/>
            <rect id="Rectangle_1927" data-name="Rectangle 1927" class="cls-10" width="71.585" height="90.763" rx="3.245" transform="translate(34.948 25.052)"/>
            <circle id="Ellipse_1527" data-name="Ellipse 1527" class="cls-3" cx="14.515" cy="14.515" r="14.515" transform="translate(53.575 31.835)"/>
            <path id="Rectangle_1928" data-name="Rectangle 1928" class="cls-3" d="M1.14 0H11.3a1.14 1.14 0 0 1 1.14 1.14v6.014a1.141 1.141 0 0 1-1.14 1.14H1.14A1.14 1.14 0 0 1 0 7.154V1.14A1.14 1.14 0 0 1 1.14 0z" transform="translate(94.01 11.099)"/>
            <path id="Path_17385" data-name="Path 17385" class="cls-3" d="M295.224 99.626h-76.756a3.061 3.061 0 0 0-2.607 4.666l5.423 8.813h41.579a15.264 15.264 0 0 0-.107 1.746v34.542h47.693v-34.542a15.225 15.225 0 0 0-15.225-15.225z" transform="translate(-215.402 -33.577)"/>
        </g>
        <g id="Group_8738" data-name="Group 8738" transform="translate(83.982 126.061)">
            <path id="Path_17386" data-name="Path 17386" d="M148.5 165.79c3.326 6.813-8.039 13.353-15.414 13.353a13.353 13.353 0 0 1 0-26.705c7.38-.001 12.114 6.585 15.414 13.352z" transform="translate(-114.975 -152.437)"/>
            <path id="Path_17387" data-name="Path 17387" d="M163.889 197.53h-44.15v-31.514H148.5z" transform="translate(-114.975 -152.663)"/>
            <circle id="Ellipse_1528" data-name="Ellipse 1528" class="cls-3" cx="9.831" cy="9.831" r="9.831" transform="translate(8.045 3.805)"/>
            <path id="Path_17388" data-name="Path 17388" class="cls-3" d="M141.092 179.564h-14.544a11.655 11.655 0 0 0-11.654 11.655v19.406h37.852v-19.406a11.655 11.655 0 0 0-11.654-11.655z" transform="translate(-114.894 -152.889)"/>
        </g>
        <circle id="Ellipse_1529" data-name="Ellipse 1529" class="cls-9" cx="15.957" cy="15.957" r="15.957" transform="translate(31.308 12.805)"/>
        <path id="Path_17389" data-name="Path 17389" class="cls-9" d="M85.386 75.726H62.792A15.888 15.888 0 0 0 46.9 91.615v24.3h54.371v-24.3a15.888 15.888 0 0 0-15.885-15.889z" transform="translate(-29.779 -25.097)"/>
    </g>
    <path id="Path_17390" data-name="Path 17390" class="cls-4" d="M-1.68-7.92V0h-31.74v-6.3l16.2-15.3a17.2 17.2 0 0 0 3.48-4.23 7.694 7.694 0 0 0 .9-3.51 4.641 4.641 0 0 0-1.71-3.87 7.957 7.957 0 0 0-5.01-1.35 11.5 11.5 0 0 0-4.98 1.05 9.537 9.537 0 0 0-3.72 3.15l-7.08-4.56a16.609 16.609 0 0 1 6.78-5.73 22.644 22.644 0 0 1 9.9-2.07 20.354 20.354 0 0 1 8.19 1.53 12.623 12.623 0 0 1 5.46 4.32 11.177 11.177 0 0 1 1.95 6.57 14.645 14.645 0 0 1-1.44 6.42 24.714 24.714 0 0 1-5.58 6.84l-9.66 9.12z" transform="translate(335.68 216)"/>
</svg>
