<svg xmlns="http://www.w3.org/2000/svg" width="354" height="236" viewBox="0 0 354 236">
    <defs>
        <style>
            .cls-9{fill:#f2f2f3}.cls-2{fill:#e5e6e6}.cls-8{fill:#d9d9da}
        </style>
    </defs>
    <g id="steps-earn" transform="translate(.001 .291)">
        <g id="Group_8508" data-name="Group 8508" transform="translate(42.784 12.099)">
            <path id="Path_16969" data-name="Path 16969" class="cls-2" d="M287.426 90.861h-5.893v-43.23l-12.515-12.516V16.137h5.893v16.537l12.515 12.516z" transform="translate(-47.562 -12.415)"/>
            <path id="Path_16970" data-name="Path 16970" class="cls-2" d="M192.42 127.419h-5.893V60.508l20.347-20.348V12.347h5.893V42.6L192.42 62.949z" transform="translate(-46.097 -12.347)"/>
            <path id="Path_16971" data-name="Path 16971" class="cls-2" d="M168.81 128.988h-5.893V79.809L141.25 58.143V27h5.893v28.7l21.667 21.668z" transform="translate(-45.293 -12.608)"/>
            <circle id="Ellipse_1485" data-name="Ellipse 1485" cx="54.727" cy="54.727" r="54.727" transform="translate(80.533 85.497)" style="fill:#d8a70a"/>
            <path id="Path_16972" data-name="Path 16972" d="M180.186 94.453a59.577 59.577 0 1 0 59.577 59.577 59.577 59.577 0 0 0-59.577-59.577zm0 107.983a48.406 48.406 0 1 1 48.407-48.406 48.406 48.406 0 0 1-48.407 48.406z" transform="translate(-44.926 -13.806)" style="fill:#f0b90b"/>
            <circle id="Ellipse_1486" data-name="Ellipse 1486" cx="30.133" cy="30.133" r="30.133" transform="translate(206.785 48.313)" style="fill:#999a9d"/>
            <path id="Path_16973" data-name="Path 16973" d="M284.16 58.4a33.208 33.208 0 1 0 33.208 33.208A33.209 33.209 0 0 0 284.16 58.4zm0 60.19a26.982 26.982 0 1 1 26.981-26.982 26.982 26.982 0 0 1-26.981 26.986z" transform="translate(-47.241 -13.165)" style="fill:#b2b3b5"/>
            <path id="Path_16974" data-name="Path 16974" class="cls-2" d="M83.914 92.987h-5.893V61.471l8.973-8.971V16h5.893v38.94l-8.973 8.973z" transform="translate(-44.17 -12.412)"/>
            <path id="Path_16976" data-name="Path 16976" d="M205.525 147.7c1.086-7.27-4.448-11.178-12.017-13.785l2.456-9.848-5.995-1.493-2.391 9.589a244.461 244.461 0 0 0-4.8-1.131l2.407-9.653-5.991-1.494-2.457 9.845c-1.3-.3-2.585-.59-3.828-.9l.007-.03-8.267-2.065-1.6 6.4s4.448 1.02 4.354 1.082c2.427.606 2.866 2.213 2.794 3.487l-2.8 11.219a4.935 4.935 0 0 1 .623.2c-.2-.049-.413-.1-.634-.156l-3.92 15.716a2.182 2.182 0 0 1-2.747 1.424c.061.087-4.356-1.087-4.356-1.087l-2.977 6.862 7.8 1.945c1.451.364 2.873.745 4.274 1.1l-2.481 9.961 5.989 1.494 2.457-9.856c1.635.444 3.223.854 4.777 1.241l-2.448 9.809 5.995 1.493 2.48-9.942c10.222 1.935 17.909 1.155 21.145-8.091 2.607-7.444-.131-11.738-5.508-14.538 3.917-.9 6.868-3.48 7.655-8.8zm-13.7 19.207c-1.853 7.444-14.386 3.42-18.449 2.41l3.291-13.2c4.064 1.015 17.095 3.022 15.159 10.786zm1.854-19.314c-1.69 6.771-12.122 3.331-15.506 2.487l2.984-11.969c3.384.844 14.282 2.418 12.522 9.482z" transform="translate(-45.508 -14.257)" style="fill:#fff"/>
            <g id="Layer_1" transform="translate(223.857 57.094)">
                <g id="_1421394342400" data-name="1421394342400">
                    <g id="Group_8507" data-name="Group 8507">
                        <path id="Path_17007" data-name="Path 17007" class="cls-8" d="m284.782 70.474-.286.972v28.2l.286.285 13.088-7.736z" transform="translate(-271.694 -70.474)"/>
                        <path id="Path_17008" data-name="Path 17008" class="cls-9" d="m284.551 70.474-13.089 21.717 13.088 7.736V70.474z" transform="translate(-271.462 -70.474)"/>
                        <path id="Path_17009" data-name="Path 17009" class="cls-8" d="m284.784 102.843-.161.2v10.044l.161.471 13.1-18.444z" transform="translate(-271.696 -70.912)"/>
                        <path id="Path_17010" data-name="Path 17010" class="cls-9" d="M284.551 113.554v-10.711l-13.089-7.733z" transform="translate(-271.462 -70.912)"/>
                        <path id="Path_17011" data-name="Path 17011" d="m284.787 100.212 13.088-7.736-13.088-5.949z" transform="translate(-271.699 -70.759)" style="fill:#cccdce"/>
                        <path id="Path_17012" data-name="Path 17012" class="cls-2" d="m271.462 92.476 13.088 7.736V86.527z" transform="translate(-271.462 -70.759)"/>
                    </g>
                </g>
            </g>
            <circle id="Ellipse_1489" data-name="Ellipse 1489" class="cls-2" cx="6.071" cy="6.071" r="6.071" transform="translate(174.535 45.395)"/>
            <circle id="Ellipse_1490" data-name="Ellipse 1490" class="cls-2" cx="11.57" cy="11.57" r="11.57" transform="translate(0 146.621)"/>
            <g id="Group_8525" data-name="Group 8525" transform="translate(14.961 66.738)">
                <circle id="Ellipse_1507" data-name="Ellipse 1507" cx="19.835" cy="19.835" r="19.835" transform="translate(2.002 2.002)" style="fill:#333436"/>
                <path id="Path_17056" data-name="Path 17056" d="M80.626 72.147a21.837 21.837 0 1 0 21.837 21.837 21.838 21.838 0 0 0-21.837-21.837zm0 39.579a17.742 17.742 0 1 1 17.742-17.742 17.742 17.742 0 0 1-17.742 17.742z" transform="translate(-58.789 -72.147)"/>
                <path id="Path_17057" data-name="Path 17057" d="M81.548 94.485c-.13.01-.8.05-2.307.05-1.195 0-2.044-.036-2.341-.05-4.619-.2-8.067-1.007-8.067-1.971s3.448-1.765 8.067-1.971v3.141c.3.022 1.166.073 2.362.073 1.434 0 2.153-.06 2.282-.072v-3.14c4.61.206 8.05 1.01 8.05 1.97s-3.439 1.765-8.05 1.969zm0-4.265v-2.811h6.433v-4.287H70.467v4.287H76.9v2.81c-5.228.24-9.158 1.275-9.158 2.517s3.931 2.275 9.158 2.517v9.007h4.649v-9.011c5.215-.24 9.14-1.274 9.14-2.515s-3.921-2.274-9.14-2.515zm0 0" transform="translate(-57.376 -70.894)" style="fill-rule:evenodd;fill:#fff"/>
            </g>
            <circle id="Ellipse_1530" data-name="Ellipse 1530" class="cls-2" cx="6.071" cy="6.071" r="6.071" transform="translate(46.494 177.747)"/>
        </g>
        <path id="Path_17370" data-name="Path 17370" class="cls-8" d="M-13.56-24.9a14.138 14.138 0 0 1 8.46 4.11 11.33 11.33 0 0 1 2.94 7.95 12.546 12.546 0 0 1-1.92 6.75 13.374 13.374 0 0 1-5.85 4.95A22.41 22.41 0 0 1-19.56.72a33.033 33.033 0 0 1-8.73-1.17 22.487 22.487 0 0 1-7.29-3.33l3.78-7.44a18.313 18.313 0 0 0 5.55 2.79 21.389 21.389 0 0 0 6.45.99 10.224 10.224 0 0 0 5.76-1.41 4.53 4.53 0 0 0 2.1-3.99q0-5.16-7.86-5.16h-4.44v-6.42l8.64-9.78h-17.88V-42h29.4v6.3z" transform="translate(336.159 214.99)"/>
    </g>
</svg>
